HIERARCHY
ROOT Hips
{
 OFFSET 0.000000 0.000000 0.000000
 CHANNELS 6 Xposition Yposition Zposition Yrotation Xrotation Zrotation
 JOINT Chest
 {
  OFFSET 0.000000 9.585900 0.002600
  CHANNELS 3 Yrotation Xrotation Zrotation
  JOINT Chest2
  {
   OFFSET 0.000000 9.601200 -0.005300
   CHANNELS 3 Yrotation Xrotation Zrotation
   JOINT Chest3
   {
    OFFSET 0.000000 9.561800 0.000000
    CHANNELS 3 Yrotation Xrotation Zrotation
    JOINT Chest4
    {
     OFFSET 0.000000 9.552100 0.000000
     CHANNELS 3 Yrotation Xrotation Zrotation
     JOINT Neck
     {
      OFFSET 0.000000 14.453000 0.000000
      CHANNELS 3 Yrotation Xrotation Zrotation
      JOINT Head
      {
       OFFSET 0.000000 8.936500 -0.011300
       CHANNELS 3 Yrotation Xrotation Zrotation
       End Site
       {
        OFFSET 0.000000 17.073600 -0.006000
       }
      }
     }
     JOINT RightCollar
     {
      OFFSET -2.921100 9.558500 0.000000
      CHANNELS 3 Yrotation Xrotation Zrotation
      JOINT RightShoulder
      {
       OFFSET -13.519700 0.000000 0.000000
       CHANNELS 3 Yrotation Xrotation Zrotation
       JOINT RightElbow
       {
        OFFSET 0.000000 -29.696600 0.000000
        CHANNELS 3 Yrotation Xrotation Zrotation
        JOINT RightWrist
        {
         OFFSET 0.000000 -24.004700 0.000000
         CHANNELS 3 Yrotation Xrotation Zrotation
         End Site
         {
          OFFSET 0.000000 -17.728500 0.000000
         }
        }
       }
      }
     }
     JOINT LeftCollar
     {
      OFFSET 2.921100 9.558500 0.000000
      CHANNELS 3 Yrotation Xrotation Zrotation
      JOINT LeftShoulder
      {
       OFFSET 13.519700 0.000000 0.000000
       CHANNELS 3 Yrotation Xrotation Zrotation
       JOINT LeftElbow
       {
        OFFSET 0.000000 -29.696600 0.000000
        CHANNELS 3 Yrotation Xrotation Zrotation
        JOINT LeftWrist
        {
         OFFSET 0.000000 -24.004700 0.000000
         CHANNELS 3 Yrotation Xrotation Zrotation
         End Site
         {
          OFFSET 0.000000 -17.728500 0.000000
         }
        }
       }
      }
     }
    }
   }
  }
 }
 JOINT RightHip
 {
  OFFSET -7.771700 -0.012900 -0.001300
  CHANNELS 3 Yrotation Xrotation Zrotation
  JOINT RightKnee
  {
   OFFSET 0.000000 -40.869800 0.001200
   CHANNELS 3 Yrotation Xrotation Zrotation
   JOINT RightAnkle
   {
    OFFSET 0.000000 -39.717900 0.002100
    CHANNELS 3 Yrotation Xrotation Zrotation
    JOINT RightToe
    {
     OFFSET 0.000000 -4.965400 11.033500
     CHANNELS 3 Yrotation Xrotation Zrotation
     End Site
     {
      OFFSET 0.000000 -1.423100 5.872300
     }
    }
   }
  }
 }
 JOINT LeftHip
 {
  OFFSET 7.771700 -0.012900 -0.001300
  CHANNELS 3 Yrotation Xrotation Zrotation
  JOINT LeftKnee
  {
   OFFSET 0.000000 -40.869800 0.001200
   CHANNELS 3 Yrotation Xrotation Zrotation
   JOINT LeftAnkle
   {
    OFFSET 0.000000 -39.717900 0.002100
    CHANNELS 3 Yrotation Xrotation Zrotation
    JOINT LeftToe
    {
     OFFSET 0.000000 -4.965400 11.033500
     CHANNELS 3 Yrotation Xrotation Zrotation
     End Site
     {
      OFFSET 0.000000 -1.423100 5.872300
     }
    }
   }
  }
 }
}
MOTION
Frames: 12
Frame Time: 0.008333
0.000000 85.388000 0.000000 0.000000 -5.767877 0.000000 0.000000 11.653817 0.000000 0.000000 -5.885947 0.000000 0.000000 -0.000000 0.000000 0.000000 -0.000000 0.000000 0.000000 12.528835 0.000000 0.000000 0.711642 0.000000 0.000000 -0.000000 0.000000 0.000000 0.000000 -90.000000 0.000000 -2.309062 0.000000 0.000000 2.309062 0.000000 0.000000 -0.000000 0.000000 0.000000 -0.000000 90.000000 0.000000 -2.309062 0.000000 0.000000 2.309062 0.000000 0.000000 8.520406 0.000000 0.000000 1.905762 0.000000 -0.000000 -4.658285 0.000000 0.000000 -0.000000 0.000000 0.000000 8.520406 0.000000 0.000000 1.905762 0.000000 -0.000000 -4.658285 0.000000 0.000000 -0.000000 0.000000
-42.254612 44.590187 34.123662 173.433764 -36.773180 0.019994 0.305047 21.293132 2.193108 -0.057571 2.766107 0.313082 -0.086242 4.515325 0.510056 -0.103840 17.949977 2.040510 -4.097491 16.387247 -6.641787 -2.885953 -8.304600 -6.223116 18.233704 0.509145 -6.184172 34.115248 -40.240217 -34.675852 -176.698608 -46.934874 -161.933794 -1.759619 -4.926002 -50.220186 -21.298968 -1.465850 -4.396493 15.202478 -21.347677 3.215657 38.835984 -63.006752 -29.636971 18.478596 13.719027 37.316731 2.180826 -54.987456 9.116251 -151.811111 73.003292 -149.426517 -13.958032 -22.931566 8.449230 0.053067 -0.015337 -0.185798 4.172546 -44.449165 -3.586159 173.188326 63.893903 174.753829 0.346341 -35.337297 1.327721 0.073408 0.442228 0.095741
-42.239347 44.569209 34.182877 173.434226 -36.974296 0.013000 0.331944 21.256461 2.181526 -0.054378 2.794574 0.310604 -0.081011 4.559406 0.505781 -0.083331 18.026869 2.014913 -4.041639 16.378561 -6.574545 -2.839412 -8.318291 -6.159984 18.294376 0.507059 -6.136284 34.350356 -40.171491 -34.714297 -176.899320 -46.851231 -161.873479 -1.721716 -4.937021 -50.260710 -21.335850 -1.408770 -4.336273 15.203185 -21.325892 3.230960 38.663622 -63.238649 -29.470071 18.429550 13.817091 37.226193 1.978227 -54.840674 9.287778 -151.578138 73.000411 -149.263424 -13.967268 -22.902172 8.453026 0.107530 -0.054356 -0.172049 4.088823 -44.355436 -3.492530 173.324914 63.895795 174.853616 0.416622 -35.157707 1.250929 0.076793 0.370934 0.102335
-42.227175 44.548655 34.247321 173.415937 -37.232317 0.041446 0.359882 21.281622 2.144315 -0.052545 2.822311 0.307746 -0.077955 4.602337 0.500934 -0.072377 18.101394 1.986486 -4.016161 16.419990 -6.505989 -2.772900 -8.367880 -6.111233 18.372611 0.498204 -6.091485 34.579623 -40.086640 -34.741794 -177.054295 -46.816549 -161.891659 -1.684171 -4.971205 -50.240152 -21.363933 -1.318400 -4.290401 15.214443 -21.339190 3.243191 38.577869 -63.432993 -29.403913 18.383861 13.926227 37.120765 1.805860 -54.635056 9.421389 -151.338234 72.999852 -149.102553 -13.966049 -22.890205 8.457664 0.137543 -0.080996 -0.164195 4.057842 -44.176171 -3.446331 173.469701 63.924360 174.969339 0.562576 -35.040388 1.085309 0.031317 0.358769 0.161933
-42.219278 44.528646 34.316159 173.386116 -37.523841 0.099234 0.385272 21.353287 2.089031 -0.051042 2.851387 0.305308 -0.087952 4.715447 0.507748 -0.054225 18.110872 1.947997 -3.960865 16.390142 -6.452336 -2.752205 -8.352992 -6.050325 18.454524 0.455574 -6.062810 34.738706 -40.007227 -34.708784 -177.145661 -46.827201 -161.945587 -1.634361 -5.018268 -50.183580 -21.367401 -1.363239 -4.234447 15.255336 -21.309964 3.268167 38.470110 -63.521563 -29.369167 18.345981 14.035269 37.013697 1.663571 -54.393100 9.514061 -151.088740 73.003690 -148.935253 -13.975229 -22.889592 8.467820 0.137857 -0.097359 -0.164409 4.078777 -43.948928 -3.445835 173.626801 63.968095 175.115181 0.654838 -34.949009 1.029702 0.039908 0.373365 0.144635
-42.212209 44.508714 34.389704 173.352428 -37.821087 0.153196 0.416205 21.437355 2.051088 -0.049724 2.880495 0.303530 -0.078541 4.725397 0.497424 -0.050719 18.222488 1.934397 -3.920564 16.362429 -6.407396 -2.743343 -8.345767 -5.999402 18.528285 0.391561 -6.051009 34.785884 -39.960825 -34.594461 -177.158266 -46.874831 -161.995888 -1.572753 -5.079208 -50.130071 -21.369469 -1.391324 -4.200464 15.254099 -21.285770 3.290110 38.471507 -63.595590 -29.423258 18.323782 14.131613 36.911987 1.506216 -54.142847 9.615162 -150.837364 73.017477 -148.772477 -13.956062 -22.886368 8.466745 0.139103 -0.113476 -0.164418 4.097038 -43.717972 -3.436248 173.782682 64.013273 175.259309 0.745288 -34.860374 0.975801 0.030005 0.391456 0.147013
-42.204243 44.488421 34.468008 173.328931 -38.101865 0.179675 0.449222 21.502652 2.042037 -0.048130 2.907672 0.302067 -0.070483 4.734287 0.491040 -0.044559 18.326151 1.920288 -3.925648 16.400996 -6.367023 -2.736395 -8.350799 -5.978475 18.583854 0.327640 -6.041088 34.725459 -39.958645 -34.423386 -177.172563 -46.962861 -161.967095 -1.557492 -5.189885 -50.121474 -21.371629 -1.396440 -4.184916 15.219590 -21.245042 3.317851 38.582366 -63.656476 -29.575295 18.316657 14.211179 36.812096 1.297925 -53.906302 9.758721 -150.578929 73.042220 -148.614689 -13.903799 -22.869302 8.451484 0.153427 -0.135664 -0.159922 4.090693 -43.509766 -3.400264 173.911685 64.056266 175.377759 0.881006 -34.781992 0.812328 -0.004814 0.417600 0.194548
-42.192534 44.456659 34.564895 173.462854 -38.247650 0.059706 0.375772 21.430631 2.081048 -0.045594 2.932732 0.300808 -0.066381 4.772898 0.488767 -0.028506 18.390948 1.904865 -3.899430 16.386356 -6.332035 -2.761057 -8.285927 -5.946718 18.620736 0.266587 -6.022666 34.592831 -39.987858 -34.238668 -177.000828 -47.018645 -162.037944 -1.478736 -5.249291 -50.151924 -21.368038 -1.391186 -4.178631 15.168036 -21.171215 3.349535 38.773980 -63.709913 -29.811023 18.321833 14.282069 36.712297 0.892525 -53.801996 9.989724 -150.310236 73.075677 -148.454212 -13.831307 -22.836627 8.430880 0.158147 -0.165664 -0.159630 3.963313 -43.599059 -3.335414 174.026826 64.015853 175.506616 0.965120 -34.412064 0.734660 -0.012680 0.227650 0.194483
-42.184988 44.441442 34.643112 173.428296 -38.521822 0.069045 0.421193 21.487451 2.088981 -0.042203 2.956221 0.299635 -0.060878 4.809160 0.486734 -0.007170 18.451346 1.891544 -3.870320 16.374654 -6.299173 -2.724989 -8.316916 -5.894153 18.645470 0.207958 -5.998076 34.423768 -40.031783 -34.068787 -176.815305 -47.058082 -162.089754 -1.418804 -5.309701 -50.223979 -21.356755 -1.375935 -4.175032 15.080825 -21.140514 3.400454 38.966934 -63.693774 -30.026447 18.337606 14.349494 36.615687 0.653391 -53.565711 10.179755 -150.052363 73.113583 -148.302314 -13.796337 -22.791998 8.411276 0.177476 -0.198381 -0.151089 3.989017 -43.394375 -3.297163 174.093859 64.056012 175.601621 1.035797 -34.326132 0.655513 -0.037666 0.245062 0.229475
-42.189532 44.435477 34.710866 173.431188 -38.849923 0.125534 0.409348 21.598825 2.022319 -0.038085 2.978427 0.298329 -0.054091 4.843401 0.484647 0.018676 18.508051 1.878927 -3.848456 16.379490 -6.263548 -2.695798 -8.335197 -5.854953 18.655677 0.152381 -5.971735 34.257661 -40.073189 -33.928498 -176.656743 -47.089782 -162.112722 -1.379000 -5.370403 -50.312731 -21.345615 -1.353457 -4.171410 14.989103 -21.182688 3.462024 39.091445 -63.585689 -30.174393 18.362340 14.413721 36.532925 0.494115 -53.268147 10.243674 -149.919997 73.127763 -148.283543 -13.798214 -22.778008 8.434355 0.159943 -0.235617 -0.154953 4.033593 -43.110880 -3.346813 174.137053 64.117579 175.652542 1.087239 -34.246358 0.589251 -0.040112 0.259272 0.232809
-42.178023 44.424509 34.788628 173.355243 -39.095817 0.125245 0.504463 21.628226 2.072541 -0.033167 2.998812 0.296946 -0.046012 4.874817 0.482399 0.049457 18.559890 1.867234 -3.824317 16.379921 -6.224403 -2.677987 -8.336933 -5.816581 18.649198 0.100156 -5.944010 34.125071 -40.092590 -33.823349 -176.532505 -47.111102 -162.120932 -1.350072 -5.411941 -50.387124 -21.343798 -1.324161 -4.168339 14.929643 -21.153976 3.486719 39.249421 -63.527672 -30.386000 18.391222 14.488574 36.464117 0.267111 -53.053885 10.469478 -149.623597 73.189576 -148.062420 -13.808047 -22.714795 8.395613 0.200677 -0.217003 -0.165259 4.040089 -42.928227 -3.240456 174.207873 64.156054 175.738664 1.131334 -34.172410 0.529971 -0.014896 0.250323 0.186990
-42.165784 44.416337 34.864160 173.279412 -39.335922 0.122227 0.606256 21.653042 2.130378 -0.027552 3.016786 0.295613 -0.036830 4.902487 0.480182 0.084534 18.605340 1.857324 -3.799617 16.380127 -6.179611 -2.660797 -8.339247 -5.772057 18.629970 0.055091 -5.918177 34.027406 -40.082404 -33.748027 -176.450909 -47.128246 -162.114158 -1.335255 -5.442493 -50.431693 -21.352617 -1.286652 -4.167586 14.871534 -21.090712 3.507871 39.454877 -63.483215 -30.638312 18.415749 14.594288 36.392088 0.040872 -52.839617 10.694073 -149.376165 73.257634 -147.889311 -13.812069 -22.662208 8.356609 0.225679 -0.195966 -0.179564 4.035672 -42.750357 -3.122071 174.279831 64.193450 175.818692 1.151319 -34.090848 0.509340 0.002348 0.236028 0.138735
